<svg width="14" height="14" viewBox="0 0 14 14" fill="none" xmlns="http://www.w3.org/2000/svg">
<path d="M12.7053 4.42788H6.89282L4.18747 0.584563C4.08032 0.400232 3.92854 0.298849 3.73211 0.280416C3.53568 0.261983 3.34818 0.326499 3.16961 0.473964C2.90175 0.768895 2.88389 1.06383 3.11604 1.35876L5.23211 4.42788H1.29461C0.973179 4.42788 0.700858 4.54309 0.477644 4.7735C0.254429 5.00392 0.142822 5.27581 0.142822 5.58917V6.19747C0.142822 6.7136 0.374965 7.06383 0.839251 7.24816L2.41961 12.2528C2.49104 12.5108 2.63389 12.7459 2.84818 12.9578C3.06247 13.1698 3.30354 13.2758 3.57139 13.2758H10.4285C10.6964 13.2758 10.9375 13.1698 11.1518 12.9578C11.366 12.7459 11.5089 12.5108 11.5803 12.2528L13.1607 7.30346C13.625 7.11913 13.8571 6.7689 13.8571 6.25277V5.64447C13.8571 5.29424 13.7455 5.00392 13.5223 4.7735C13.2991 4.54309 13.0268 4.42788 12.7053 4.42788ZM1.29461 5.58917H6.08925L6.49104 6.14217C6.52675 6.14217 6.54461 6.1606 6.54461 6.19747H1.29461V5.58917ZM10.4821 11.921V11.9763C10.4821 11.9947 10.4732 12.0131 10.4553 12.0316C10.4375 12.05 10.4285 12.0684 10.4285 12.0869H3.62497C3.58925 12.0869 3.57139 12.05 3.57139 11.9763L2.09818 7.35876H11.9018L10.4821 11.921ZM7.50889 6.19747C7.63389 5.97627 7.69639 5.7735 7.69639 5.58917H12.7053V6.19747H7.50889ZM4.13389 11.0362C4.15175 11.1652 4.22318 11.2758 4.34818 11.368C4.47318 11.4601 4.59818 11.5062 4.72318 11.5062H4.83032C4.97318 11.4694 5.08925 11.3772 5.17854 11.2297C5.26782 11.0823 5.28568 10.9348 5.23211 10.7873L4.66961 8.4371C4.63389 8.28963 4.54461 8.16982 4.40175 8.07765C4.25889 7.98549 4.11604 7.96705 3.97318 8.02235C3.83032 8.05922 3.71425 8.15138 3.62497 8.29885C3.53568 8.44631 3.51782 8.58456 3.57139 8.7136L4.13389 11.0362ZM9.16961 11.5062H9.27675C9.40175 11.5062 9.52675 11.4601 9.65175 11.368C9.77675 11.2758 9.84818 11.1652 9.86604 11.0362L10.4285 8.6583C10.4643 8.51083 10.4419 8.36337 10.3616 8.2159C10.2812 8.06844 10.1696 7.98549 10.0268 7.96705C9.65175 7.89332 9.41961 8.03157 9.33032 8.3818L8.76782 10.732C8.66068 11.1007 8.79461 11.3588 9.16961 11.5062ZM6.99997 11.5062C7.37497 11.5062 7.56247 11.3035 7.56247 10.8979V8.5477C7.56247 8.1606 7.37497 7.96705 6.99997 7.96705C6.62497 7.96705 6.43747 8.1606 6.43747 8.5477V10.8979C6.43747 11.3035 6.62497 11.5062 6.99997 11.5062Z" fill="white"/>
</svg>
