<svg xmlns="http://www.w3.org/2000/svg" width="45" height="45" class="icons MTR drk" x="0" y="0" viewBox="192 70 450 450"><path class="cls-1" d="M317.86,182.83V162.55c0-18.57,13.42-30.73,33.54-30.73s33.39,12.17,33.39,30.73v20.28c0,18.57-13.26,30.74-33.39,30.74S317.86,201.4,317.86,182.83Z"></path><path class="cls-1" d="M440.78,305.06h0a23.85,23.85,0,0,0-2.32-2.92L395,247.32a59.89,59.89,0,0,1-4.71-7.31c-2.77-4.78-7.23-6.81-13.15-6.81H330.38a12.52,12.52,0,0,0-12.52,12.52V450.94a12.52,12.52,0,0,0,12.52,12.52h28a12.52,12.52,0,0,0,12.52-12.52V304.41a2.43,2.43,0,0,1,4.23-1.64l26,28.51h0a23.78,23.78,0,1,0,39.67-26.21Z"></path><path class="cls-2" d="M490.49,213.57c-20.13,0-33.39-12.17-33.39-30.74V162.55c0-18.57,13.26-30.73,33.39-30.73S524,144,524,162.55v20.28C524,201.4,510.61,213.57,490.49,213.57Z"></path><path class="cls-3" d="M401.11,305.06h0a23.85,23.85,0,0,1,2.32-2.92l43.48-54.81a59.89,59.89,0,0,0,4.71-7.31c2.77-4.78,7.23-6.81,13.15-6.81h46.74A12.52,12.52,0,0,1,524,245.72V450.94a12.52,12.52,0,0,1-12.52,12.52h-28A12.52,12.52,0,0,1,471,450.94V304.41a2.43,2.43,0,0,0-4.23-1.64l-26,28.51h0a23.78,23.78,0,1,1-39.67-26.21Z"></path></svg>