<svg width="24" height="23" viewBox="0 0 24 23" fill="none" xmlns="http://www.w3.org/2000/svg">
<path d="M1.82282 0.124666L23.2757 10.3549C23.4925 10.4582 23.6756 10.6205 23.8038 10.8231C23.932 11.0258 24 11.2605 24 11.5001C24 11.7397 23.932 11.9744 23.8038 12.177C23.6756 12.3797 23.4925 12.542 23.2757 12.6452L1.82282 22.8755C1.6029 22.9805 1.35735 23.0203 1.11538 22.9902C0.873407 22.9601 0.645209 22.8613 0.457932 22.7056C0.270656 22.5499 0.132186 22.3438 0.0589975 22.1119C-0.0141906 21.8799 -0.0190159 21.6319 0.0450961 21.3973L2.1914 13.5518C2.21767 13.4557 2.27175 13.3693 2.34689 13.3036C2.42203 13.2379 2.51491 13.1957 2.61394 13.1823L13.0095 11.7742C13.0529 11.768 13.094 11.7508 13.1288 11.7241C13.1636 11.6974 13.1909 11.6622 13.208 11.6219L13.2263 11.559C13.2344 11.5023 13.223 11.4446 13.1939 11.3952C13.1649 11.3458 13.12 11.3076 13.0665 11.2869L13.0105 11.2717L2.62514 9.86356C2.52629 9.84994 2.43363 9.80765 2.35869 9.74195C2.28375 9.67625 2.22982 9.59003 2.20362 9.49402L0.0450961 1.60382C-0.0192755 1.36917 -0.0146467 1.12102 0.0584311 0.888915C0.131509 0.656812 0.269956 0.450544 0.457282 0.29468C0.644608 0.138815 0.872919 0.0399218 1.11502 0.00977951C1.35712 -0.0203628 1.60281 0.019516 1.82282 0.124666Z" fill="white"/>
</svg>
