<svg width="16" height="16" viewBox="0 0 16 16" fill="none" xmlns="http://www.w3.org/2000/svg">
<path d="M8 0C6.4981 0 5.02993 0.445366 3.78114 1.27978C2.53236 2.11419 1.55905 3.30017 0.984293 4.68775C0.40954 6.07532 0.259159 7.60217 0.552165 9.07522C0.845172 10.5483 1.56841 11.9013 2.63041 12.9633C3.69242 14.0253 5.04549 14.7486 6.51854 15.0416C7.99158 15.3346 9.51843 15.1842 10.906 14.6095C12.2936 14.0347 13.4796 13.0614 14.314 11.8126C15.1484 10.5638 15.5938 9.09565 15.5938 7.59375C15.5919 5.58033 14.7912 3.64992 13.3675 2.22621C11.9438 0.802513 10.0134 0.00186169 8 0ZM8 13.5C6.83186 13.5 5.68994 13.1536 4.71867 12.5046C3.74739 11.8556 2.99037 10.9332 2.54334 9.85397C2.09631 8.77475 1.97935 7.5872 2.20724 6.4415C2.43513 5.2958 2.99765 4.2434 3.82365 3.4174C4.64966 2.5914 5.70205 2.02888 6.84775 1.80099C7.99345 1.57309 9.181 1.69006 10.2602 2.13709C11.3395 2.58412 12.2619 3.34114 12.9109 4.31241C13.5599 5.28369 13.9063 6.4256 13.9063 7.59375C13.9044 9.15961 13.2815 10.6608 12.1743 11.768C11.0671 12.8753 9.56587 13.4981 8 13.5ZM11.0938 9C11.0919 9.59617 10.8543 10.1674 10.4327 10.5889C10.0111 11.0105 9.43992 11.2481 8.84375 11.25V11.5312C8.84375 11.755 8.75486 11.9696 8.59662 12.1279C8.43839 12.2861 8.22378 12.375 8 12.375C7.77623 12.375 7.56162 12.2861 7.40338 12.1279C7.24515 11.9696 7.15625 11.755 7.15625 11.5312V11.25H6.3125C6.08873 11.25 5.87412 11.1611 5.71588 11.0029C5.55765 10.8446 5.46875 10.63 5.46875 10.4062C5.46875 10.1825 5.55765 9.96786 5.71588 9.80963C5.87412 9.65139 6.08873 9.5625 6.3125 9.5625H8.84375C8.99294 9.5625 9.13601 9.50324 9.2415 9.39775C9.34699 9.29226 9.40625 9.14918 9.40625 9C9.40625 8.85082 9.34699 8.70774 9.2415 8.60225C9.13601 8.49676 8.99294 8.4375 8.84375 8.4375H7.15625C6.55952 8.4375 5.98722 8.20045 5.56526 7.77849C5.14331 7.35653 4.90625 6.78424 4.90625 6.1875C4.90625 5.59076 5.14331 5.01847 5.56526 4.59651C5.98722 4.17455 6.55952 3.9375 7.15625 3.9375V3.65625C7.15625 3.43247 7.24515 3.21786 7.40338 3.05963C7.56162 2.90139 7.77623 2.8125 8 2.8125C8.22378 2.8125 8.43839 2.90139 8.59662 3.05963C8.75486 3.21786 8.84375 3.43247 8.84375 3.65625V3.9375H9.6875C9.91128 3.9375 10.1259 4.02639 10.2841 4.18463C10.4424 4.34286 10.5313 4.55747 10.5313 4.78125C10.5313 5.00503 10.4424 5.21964 10.2841 5.37787C10.1259 5.53611 9.91128 5.625 9.6875 5.625H7.15625C7.00707 5.625 6.864 5.68426 6.75851 5.78975C6.65302 5.89524 6.59375 6.03832 6.59375 6.1875C6.59375 6.33668 6.65302 6.47976 6.75851 6.58525C6.864 6.69074 7.00707 6.75 7.15625 6.75H8.84375C9.43992 6.75185 10.0111 6.9895 10.4327 7.41106C10.8543 7.83261 11.0919 8.40383 11.0938 9Z" fill="#212121"/>
</svg>
